# xmcd
#
# Track frame offsets: 
#        182
#        15212
#        32565
#        49192
#        72837
#        88785
#        99615
#        115842
#        133737
#        148375
#        163380
#
# Disc length: 2410 seconds
#
# Revision: 2
# Processed by: cddbd v1.5.2PL0 Copyright (c) Steve Scherf et al.
# Submitted via: ExactAudioCopy v1.3
#
DISCID=9909680b
DTITLE=The Mavericks - What A Crying Shame
DYEAR=1994
DGENRE=Country
TTITLE0=There Goes My Heart
TTITLE1=What A Crying Shame
TTITLE2=Pretend
TTITLE3=I Should Have Been True
TTITLE4=The Things You Said To Me
TTITLE5=Just A Memory
TTITLE6=All That Heaven Will Allow
TTITLE7=Neon Blue
TTITLE8=What A Thrill
TTITLE9=Ain't Found Nobody
TTITLE10=The Losing Side Of Me
EXTD=
EXTT0=
EXTT1=
EXTT2=
EXTT3=
EXTT4=
EXTT5=
EXTT6=
EXTT7=
EXTT8=
EXTT9=
EXTT10=
PLAYORDER=
